DBRep_DrawableShape

CASCADE Topology V1, (c) Matra-Datavision
Locations 0
Curve2ds 0
Curves 20
1 1 0 0 -1 0 0 
1 1 0 0 0 1 0 
1 1 1 0 -1 0 0 
1 0 0 0 0 1 0 
1 0 0 0 0 0 1 
1 0 1 0 0 0 1 
1 0 0 1 0 1 0 
1 0 0 1 1 0 0 
1 1 0 1 0 1 0 
1 0 1 1 1 0 0 
1 1 0 1 0 0 -1 
1 1 1 1 0 0 -1 
1 1 1 0 0 1 0 
1 1 2 0 -1 0 0 
1 0 1 0 0 1 0 
1 0 2 0 0 0 1 
1 0 1 1 0 1 0 
1 1 1 1 0 1 0 
1 0 2 1 1 0 0 
1 1 2 1 0 0 -1 
Polygon3D 0
PolygonOnTriangulations 0
Surfaces 11
1 0.5 0.5 0 -0 -0 -1 -1 0 0 0 1 -0 
1 0 0.5 0.5 -1 -0 -0 0 0 -1 0 -1 0 
1 0.5 0.5 1 0 0 1 1 0 -0 -0 1 0 
1 1 0.5 0.5 1 0 0 -0 0 1 0 -1 0 
1 0.5 0 0.5 0 1 0 0 -0 1 1 0 -0 
1 0.5 1 0.5 0 1 0 0 -0 1 1 0 -0 
1 0.5 1.5 0 -0 -0 -1 -1 0 0 0 1 -0 
1 0 1.5 0.5 1 0 0 -0 0 1 0 -1 0 
1 0.5 1.5 1 0 0 1 1 0 -0 -0 1 0 
1 1 1.5 0.5 1 0 0 -0 0 1 0 -1 0 
1 0.5 2 0.5 0 1 0 0 -0 1 1 0 -0 
Triangulations 0

TShapes 59
Ve
1e-07
1 0 0
0 0

0101101
*
Ve
1e-07
0 0 0
0 0

0101101
*
Ed
 1e-07 1 1 0
1  1 0 0 1
0

0101000
+59 0 -58 0 *
Ve
1e-07
1 1 0
0 0

0101101
*
Ed
 1e-07 1 1 0
1  2 0 0 1
0

0101000
+59 0 -56 0 *
Ve
1e-07
0 1 0
0 0

0101101
*
Ed
 1e-07 1 1 0
1  3 0 0 1
0

0101000
+56 0 -54 0 *
Ed
 1e-07 1 1 0
1  4 0 0 1
0

0101000
+58 0 -54 0 *
Wi

0101100
+57 0 -55 0 -53 0 +52 0 *
Fa
0  1e-07 1 0

0111000
+51 0 *
Ve
1e-07
0 0 1
0 0

0101101
*
Ed
 1e-07 1 1 0
1  5 0 0 1
0

0101000
+58 0 -49 0 *
Ve
1e-07
0 1 1
0 0

0101101
*
Ed
 1e-07 1 1 0
1  6 0 0 1
0

0101000
+54 0 -47 0 *
Ed
 1e-07 1 1 0
1  7 0 0 1
0

0101000
+49 0 -47 0 *
Wi

0101100
+48 0 -52 0 -46 0 +45 0 *
Fa
0  1e-07 2 0

0111000
+44 0 *
Ve
1e-07
1 0 1
0 0

0101101
*
Ed
 1e-07 1 1 0
1  8 0 0 1
0

0101000
+49 0 -42 0 *
Ve
1e-07
1 1 1
0 0

0101101
*
Ed
 1e-07 1 1 0
1  9 0 0 1
0

0101000
+42 0 -40 0 *
Ed
 1e-07 1 1 0
1  10 0 0 1
0

0101000
+47 0 -40 0 *
Wi

0101100
+41 0 +39 0 -38 0 -45 0 *
Fa
0  1e-07 3 0

0111000
+37 0 *
Ed
 1e-07 1 1 0
1  11 0 0 1
0

0101000
+42 0 -59 0 *
Ed
 1e-07 1 1 0
1  12 0 0 1
0

0101000
+40 0 -56 0 *
Wi

0101100
+35 0 +55 0 -34 0 -39 0 *
Fa
0  1e-07 4 0

0111000
+33 0 *
Wi

0101100
+57 0 +48 0 +41 0 +35 0 *
Fa
0  1e-07 5 0

0111000
+31 0 *
Wi

0101100
+53 0 +46 0 +38 0 +34 0 *
Fa
0  1e-07 6 0

0111000
+29 0 *
Sh

0101000
+50 0 +43 0 +36 0 +32 0 +30 0 +28 0 *
So

0100000
+27 0 *
Ve
1e-07
1 2 0
0 0

0101101
*
Ed
 1e-07 1 1 0
1  13 0 0 1
0

0101000
+56 0 -25 0 *
Ve
1e-07
0 2 0
0 0

0101101
*
Ed
 1e-07 1 1 0
1  14 0 0 1
0

0101000
+25 0 -23 0 *
Ed
 1e-07 1 1 0
1  15 0 0 1
0

0101000
+54 0 -23 0 *
Wi

0101100
+53 0 -24 0 -22 0 +21 0 *
Fa
0  1e-07 7 0

0111000
+20 0 *
Ve
1e-07
0 2 1
0 0

0101101
*
Ed
 1e-07 1 1 0
1  16 0 0 1
0

0101000
+23 0 -18 0 *
Ed
 1e-07 1 1 0
1  17 0 0 1
0

0101000
+47 0 -18 0 *
Wi

0101100
+21 0 +17 0 -16 0 -46 0 *
Fa
0  1e-07 8 0

0111000
+15 0 *
Ve
1e-07
1 2 1
0 0

0101101
*
Ed
 1e-07 1 1 0
1  18 0 0 1
0

0101000
+40 0 -13 0 *
Ed
 1e-07 1 1 0
1  19 0 0 1
0

0101000
+18 0 -13 0 *
Wi

0101100
+12 0 -11 0 -16 0 +38 0 *
Fa
0  1e-07 9 0

0111000
+10 0 *
Ed
 1e-07 1 1 0
1  20 0 0 1
0

0101000
+13 0 -25 0 *
Wi

0101100
+24 0 -8 0 -12 0 +34 0 *
Fa
0  1e-07 10 0

0111000
+7 0 *
Wi

0101100
+22 0 +17 0 +11 0 +8 0 *
Fa
0  1e-07 11 0

0111000
+5 0 *
Sh

0101000
+19 0 +14 0 +9 0 +6 0 +4 0 +28 0 *
So

0100000
+3 0 *
Co

1100000
+26 0 +2 0 *

+1 0 